<?xml version="1.0" standalone="no"?><!DOCTYPE svg PUBLIC "-//W3C//DTD SVG 1.1//EN" "http://www.w3.org/Graphics/SVG/1.1/DTD/svg11.dtd"><svg t="1748230876870" class="icon" viewBox="0 0 1024 1024" version="1.1" xmlns="http://www.w3.org/2000/svg" p-id="13767" xmlns:xlink="http://www.w3.org/1999/xlink" width="200" height="200"><path d="M896.914286 877.129143H144.566857A79.908571 79.908571 0 0 1 64.731429 797.257143V242.651429a79.945143 79.945143 0 0 1 79.835428-79.872h752.347429a79.945143 79.945143 0 0 1 79.835428 79.872V797.257143a79.908571 79.908571 0 0 1-79.835428 79.872zM144.566857 213.979429a28.672 28.672 0 0 0-28.635428 28.672V797.257143a28.672 28.672 0 0 0 28.635428 28.635428h752.347429a28.672 28.672 0 0 0 28.635428-28.635428V242.651429a28.672 28.672 0 0 0-28.635428-28.672z" fill="#2c2c2c" p-id="13768"></path><path d="M896.914286 878.957714H144.566857A81.737143 81.737143 0 0 1 62.902857 797.257143V242.651429A81.773714 81.773714 0 0 1 144.566857 160.914286h752.347429a81.737143 81.737143 0 0 1 81.664 81.700571V797.257143a81.737143 81.737143 0 0 1-81.664 81.700571zM144.566857 164.571429A78.116571 78.116571 0 0 0 66.56 242.651429V797.257143a78.116571 78.116571 0 0 0 78.006857 78.006857h752.347429A78.116571 78.116571 0 0 0 974.921143 797.257143V242.651429A78.116571 78.116571 0 0 0 896.914286 164.571429z m752.347429 663.186285H144.566857A30.500571 30.500571 0 0 1 114.102857 797.257143V242.651429A30.537143 30.537143 0 0 1 144.566857 212.114286h752.347429a30.500571 30.500571 0 0 1 30.464 30.500571V797.257143a30.464 30.464 0 0 1-30.464 30.500571zM144.566857 215.771429a26.843429 26.843429 0 0 0-26.806857 26.843428V797.257143a26.843429 26.843429 0 0 0 26.806857 26.806857h752.347429a26.843429 26.843429 0 0 0 26.806857-26.806857V242.651429a26.843429 26.843429 0 0 0-26.806857-26.88z" fill="#2c2c2c" p-id="13769"></path><path d="M262.217143 798.244571a25.6 25.6 0 0 1-21.321143-39.716571l146.285714-221.074286a15.213714 15.213714 0 0 0 0-16.786285L244.772571 303.323429a25.6 25.6 0 1 1 42.861715-28.086858l142.372571 217.380572a66.377143 66.377143 0 0 1 0 73.142857l-146.285714 221.037714a25.6 25.6 0 0 1-21.504 11.446857z" fill="#2c2c2c" p-id="13770"></path><path d="M262.217143 800.073143a27.392 27.392 0 0 1-22.857143-42.569143l146.285714-221.037714a13.312 13.312 0 0 0 0-14.628572L243.273143 304.310857A27.428571 27.428571 0 1 1 289.133714 274.285714L431.542857 491.629714a68.132571 68.132571 0 0 1 0 75.227429l-146.285714 220.928a27.392 27.392 0 0 1-23.04 12.288zM266.166857 265.508571a23.588571 23.588571 0 0 0-12.982857 3.876572 23.808 23.808 0 0 0-6.875429 32.914286l142.409143 217.380571a17.115429 17.115429 0 0 1 0 18.797714l-146.285714 221.074286a23.808 23.808 0 0 0 6.729143 32.914286 23.734857 23.734857 0 0 0 32.914286-6.692572l146.285714-221.074285a64.548571 64.548571 0 0 0 0-71.094858l-142.262857-217.344a23.442286 23.442286 0 0 0-15.030857-10.24 22.564571 22.564571 0 0 0-4.900572-0.512z" fill="#2c2c2c" p-id="13771"></path><path d="M450.121143 798.244571a25.6 25.6 0 0 1-21.321143-39.716571l147.894857-223.524571a10.971429 10.971429 0 0 0 0-11.885715l-144.018286-219.794285A25.6 25.6 0 1 1 475.428571 275.236571l144.018286 219.830858a61.952 61.952 0 0 1 0 68.205714l-147.858286 223.488a25.6 25.6 0 0 1-21.467428 11.483428z" fill="#2c2c2c" p-id="13772"></path><path d="M450.121143 800.073143a27.428571 27.428571 0 0 1-22.857143-42.569143L575.158857 533.942857a8.96 8.96 0 0 0 0-9.874286L431.177143 304.310857A27.428571 27.428571 0 0 1 477.074286 274.285714l144.018285 219.830857a63.780571 63.780571 0 0 1-0.182857 70.180572l-147.894857 223.524571a27.318857 27.318857 0 0 1-22.893714 12.251429z m3.949714-534.564572a23.734857 23.734857 0 0 0-19.821714 36.790858l143.981714 219.830857a12.617143 12.617143 0 0 1 0 13.897143l-147.894857 223.524571a23.771429 23.771429 0 0 0 19.785143 36.864 23.808 23.808 0 0 0 19.858286-10.642286L618.057143 562.249143a60.123429 60.123429 0 0 0 0-66.157714l-144.054857-219.830858a23.442286 23.442286 0 0 0-15.030857-10.24 21.942857 21.942857 0 0 0-4.900572-0.512z" fill="#2c2c2c" p-id="13773"></path><path d="M638.061714 798.244571a25.6 25.6 0 0 1-21.504-39.460571l144.64-224.658286a9.325714 9.325714 0 0 0 0-10.093714l-140.726857-221.001143a25.6 25.6 0 1 1 43.154286-27.501714L804.571429 496.530286a60.708571 60.708571 0 0 1 0 65.28l-144.64 224.694857a25.6 25.6 0 0 1-21.869715 11.739428z" fill="#2c2c2c" p-id="13774"></path><path d="M638.061714 800.073143a27.392 27.392 0 0 1-23.04-42.276572l144.64-224.658285a7.570286 7.570286 0 0 0 0-8.118857l-140.763428-221.001143a27.428571 27.428571 0 0 1 46.299428-29.476572l140.726857 221.001143a62.500571 62.500571 0 0 1 0 67.254857l-144.64 224.694857a27.318857 27.318857 0 0 1-23.222857 12.580572z m3.949715-534.564572a23.771429 23.771429 0 0 0-20.004572 36.571429l140.763429 220.891429a11.337143 11.337143 0 0 1 0 12.068571L618.057143 759.771429a23.771429 23.771429 0 0 0 39.972571 25.6l144.64-224.694858a58.88 58.88 0 0 0 0-63.305142L661.942857 276.516571a23.808 23.808 0 0 0-19.931428-11.008z" fill="#2c2c2c" p-id="13775"></path></svg>