<?xml version="1.0" standalone="no"?><!DOCTYPE svg PUBLIC "-//W3C//DTD SVG 1.1//EN" "http://www.w3.org/Graphics/SVG/1.1/DTD/svg11.dtd"><svg t="1748230519856" class="icon" viewBox="0 0 1024 1024" version="1.1" xmlns="http://www.w3.org/2000/svg" p-id="8302" xmlns:xlink="http://www.w3.org/1999/xlink" width="200" height="200"><path d="M979.569636 718.587531h-210.928678l-224.718205-116.444888 156.281297-76.608478c4.596509-2.553616 7.660848-7.150125 8.171571-12.257357 0.510723-5.107232-2.042893-10.214464-6.639402-13.278803l-163.431421-108.273317 180.285287-115.423441h63.329676c8.171571 0 14.810973-6.639401 14.810972-14.810973V17.364589c0-8.171571-6.639401-14.810973-14.810972-14.810973-8.171571 0-14.810973 6.639401-14.810973 14.810973V132.78803H247.703302V17.364589c0-8.171571-6.639401-14.810973-14.810973-14.810973-8.171571 0-14.810973 6.639401-14.810972 14.810973v244.125685c0 8.171571 6.639401 14.810973 14.810972 14.810973h66.394015l127.680798 85.801496c2.553616 1.53217 5.617955 2.553616 8.171571 2.553616 4.596509 0 9.193017-2.042893 12.257357-6.639401 4.596509-6.639401 2.553616-15.832419-4.085786-20.428928l-91.419451-61.286783h312.05187L321.758165 495.401496c-4.596509 3.064339-7.150125 7.660848-6.639402 13.278803 0.510723 5.107232 3.575062 10.214464 8.171571 12.257357l88.355112 44.943641c2.042893 1.021446 4.596509 1.53217 6.639402 1.532169 5.617955 0 10.725187-3.064339 13.278803-8.171571 3.575062-7.150125 1.021446-16.343142-6.639402-19.918204l-65.372568-33.197008 151.684788-97.037406c0.510723 1.021446 1.53217 1.53217 2.553616 2.042893l150.152618 99.591022-424.410972 208.375062H49.03198c-22.47182 0-40.347132 18.386035-40.347132 40.347133v126.659351c0 22.47182 18.386035 40.347132 40.347132 40.347132h43.411471c4.085786 54.647382 49.54015 97.54813 105.208978 97.54813 55.668828 0 101.123192-43.411471 105.208977-97.54813H721.143701c4.085786 51.583042 47.497257 92.951621 100.101745 92.951621s96.01596-40.857855 100.101746-92.951621h58.733167c22.47182 0 40.347132-18.386035 40.347132-40.347132v-126.659351c-0.510723-22.47182-18.386035-40.857855-40.857855-40.857856zM247.703302 162.409975H767.108788v84.269327H247.703302V162.409975z m263.022444 456.075811l193.564089 100.612468h-398.364089l204.8-100.612468z m-313.073317 366.188528c-33.707731 0-61.797506-25.53616-65.372569-58.733167h131.255861c-4.085786 33.197007-32.175561 58.733167-65.883292 58.733167z m623.082294 5.107232c-36.77207 0-66.904738-27.579052-70.4798-63.329676h140.959601c-3.575062 35.2399-33.707731 63.329676-70.479801 63.329676z m169.5601-104.187531c0 6.128678-5.107232 11.23591-11.23591 11.23591H49.03198c-6.128678 0-11.23591-5.107232-11.23591-11.23591v-126.659352c0-6.128678 5.107232-11.23591 11.23591-11.23591h187.946135c1.53217 0.510723 3.064339 0.510723 4.085785 0.510723 1.53217 0 2.553616-0.510723 4.085786-0.510723H762.001556c1.53217 0.510723 2.553616 0.510723 4.085786 0.510723 1.53217 0 3.064339 0 4.085785-0.510723h208.885786c6.128678 0 11.23591 5.107232 11.23591 11.23591v126.659352z" fill="#394553" p-id="8303"></path></svg>