<?xml version="1.0" standalone="no"?><!DOCTYPE svg PUBLIC "-//W3C//DTD SVG 1.1//EN" "http://www.w3.org/Graphics/SVG/1.1/DTD/svg11.dtd"><svg t="1748229849440" class="icon" viewBox="0 0 1024 1024" version="1.1" xmlns="http://www.w3.org/2000/svg" p-id="1576" xmlns:xlink="http://www.w3.org/1999/xlink" width="200" height="200"><path d="M0 0h39.384615v1024H0z" fill="#040000" p-id="1577"></path><path d="M0 905.846154h1024v39.384615H0z" fill="#040000" p-id="1578"></path><path d="M984.615385 0h39.384615v1024h-39.384615zM354.461538 590.769231v196.923077H157.538462v-196.923077h196.923076m39.384616-39.384616H118.153846v275.692308h275.692308v-275.692308z" fill="#040000" p-id="1579"></path><path d="M275.692308 590.769231v39.384615H236.307692v-39.384615h39.384616m39.384615-39.384616H196.923077v118.153847h118.153846v-118.153847zM708.923077 590.769231v196.923077h-196.923077v-196.923077h196.923077m39.384615-39.384616h-275.692307v275.692308h275.692307v-275.692308z" fill="#040000" p-id="1580"></path><path d="M630.153846 590.769231v39.384615h-39.384615v-39.384615h39.384615m39.384616-39.384616h-118.153847v118.153847h118.153847v-118.153847zM0 433.230769h1024v39.384616H0zM354.461538 118.153846v196.923077H157.538462V118.153846h196.923076m39.384616-39.384615H118.153846v275.692307h275.692308V78.769231z" fill="#040000" p-id="1581"></path><path d="M275.692308 118.153846v39.384616H236.307692V118.153846h39.384616m39.384615-39.384615H196.923077v118.153846h118.153846V78.769231zM708.923077 118.153846v196.923077h-196.923077V118.153846h196.923077m39.384615-39.384615h-275.692307v275.692307h275.692307V78.769231z" fill="#040000" p-id="1582"></path><path d="M630.153846 118.153846v39.384616h-39.384615V118.153846h39.384615m39.384616-39.384615h-118.153847v118.153846h118.153847V78.769231zM905.846154 748.307692v39.384616h-39.384616v-39.384616h39.384616m39.384615-39.384615h-118.153846v118.153846h118.153846v-118.153846z" fill="#040000" p-id="1583"></path></svg>