<?xml version="1.0" standalone="no"?><!DOCTYPE svg PUBLIC "-//W3C//DTD SVG 1.1//EN" "http://www.w3.org/Graphics/SVG/1.1/DTD/svg11.dtd"><svg t="1748230680070" class="icon" viewBox="0 0 1024 1024" version="1.1" xmlns="http://www.w3.org/2000/svg" p-id="11390" xmlns:xlink="http://www.w3.org/1999/xlink" width="200" height="200"><path d="M928 784h-124c-98 0-190.4-47.6-247.6-127.2l-166.8-233.6C350.8 368.4 287.6 336 220.4 336H128c-26.4 0-48-21.6-48-48s21.6-48 48-48h92.4c98 0 190.4 47.6 247.6 127.2l166.8 233.6c38.8 54.4 102.4 87.2 169.2 87.2h124c26.4 0 48 21.6 48 48s-21.6 48-48 48zM832 432c-12.4 0-24.4-4.8-34-14-18.8-18.8-18.8-49.2 0-68L860 288l-62-62c-18.8-18.8-18.8-49.2 0-68 18.8-18.8 49.2-18.8 68 0l96 96c18.8 18.8 18.8 49.2 0 68l-96 96c-9.6 9.2-21.6 14-34 14z" p-id="11391"></path><path d="M832 880c-12.4 0-24.4-4.8-34-14-18.8-18.8-18.8-49.2 0-68L860 736l-62-62c-18.8-18.8-18.8-49.2 0-68 18.8-18.8 49.2-18.8 68 0l96 96c18.8 18.8 18.8 49.2 0 68l-96 96c-9.6 9.2-21.6 14-34 14zM611.2 423.6c-11.2 0-22.4-4-31.6-11.6-20-17.6-22-47.6-4.8-67.6 57.6-66 140.8-104 228.8-104H928c26.4 0 48 21.6 48 48s-21.6 48-48 48h-124.4c-60 0-116.8 26-156 71.2-9.6 10.4-23.2 16-36.4 16zM220.4 784H128c-26.4 0-48-21.6-48-48s21.6-48 48-48h92.4c60 0 116.8-26 156.8-71.2 17.6-20 48-22 67.6-4.4 20 17.6 22 48 4.4 67.6-58 66-141.2 104-228.8 104z" p-id="11392"></path></svg>